<svg width="102" height="99" viewBox="0 0 102 99" fill="none" xmlns="http://www.w3.org/2000/svg">
<path d="M35.4468 48.4884L46.2371 59.2065L67.0598 38.6364" stroke="#09727D" stroke-width="3.5" stroke-miterlimit="10" stroke-linecap="round" stroke-linejoin="round"/>
<path d="M2.77198 73.7336H0.892108C0.547906 73.7336 0.269897 74.0117 0.269897 74.3559C0.269897 74.7001 0.547906 74.9781 0.892108 74.9781H2.77198C3.11619 74.9781 3.39419 74.7001 3.39419 74.3559C3.39419 74.0117 3.11619 73.7336 2.77198 73.7336Z" fill="#09727D"/>
<path d="M12.1517 73.7336H10.2718C9.92761 73.7336 9.6496 74.0117 9.6496 74.3559C9.6496 74.7001 9.92761 74.9781 10.2718 74.9781H12.1517C12.4959 74.9781 12.7739 74.7001 12.7739 74.3559C12.7739 74.0117 12.4959 73.7336 12.1517 73.7336Z" fill="#09727D"/>
<path d="M2.98227 69.8919C2.74397 69.6536 2.34682 69.6536 2.09529 69.8919C1.85699 70.1302 1.85699 70.5273 2.09529 70.7789L3.41914 72.1027C3.53829 72.2219 3.69715 72.2881 3.85601 72.2881C4.02811 72.2881 4.18698 72.2219 4.29288 72.1027C4.53118 71.8644 4.53118 71.4673 4.29288 71.2157L2.98227 69.8919Z" fill="#09727D"/>
<path d="M9.61374 76.5212C9.37544 76.2829 8.97829 76.2829 8.72676 76.5212C8.48846 76.7595 8.48846 77.1567 8.72676 77.4082L10.0506 78.7321C10.1698 78.8512 10.3286 78.9174 10.4875 78.9174C10.6596 78.9174 10.8184 78.8512 10.9244 78.7321C11.1626 78.4938 11.1626 78.0966 10.9244 77.8451L9.61374 76.5212Z" fill="#09727D"/>
<path d="M6.53438 68.0649C6.19018 68.0649 5.91217 68.3429 5.91217 68.6871V70.567C5.91217 70.9112 6.19018 71.1892 6.53438 71.1892C6.87858 71.1892 7.15659 70.9112 7.15659 70.567V68.6871C7.15659 68.3429 6.87858 68.0649 6.53438 68.0649Z" fill="#09727D"/>
<path d="M6.53438 77.4446C6.19018 77.4446 5.91217 77.7226 5.91217 78.0668V79.9467C5.91217 80.2909 6.19018 80.5689 6.53438 80.5689C6.87858 80.5689 7.15659 80.2909 7.15659 79.9467V78.0668C7.15659 77.7226 6.87858 77.4446 6.53438 77.4446Z" fill="#09727D"/>
<path d="M10.0506 69.8919L8.72676 71.2157C8.48846 71.454 8.48846 71.8512 8.72676 72.1027C8.8459 72.2219 9.00476 72.2881 9.16363 72.2881C9.33573 72.2881 9.49459 72.2219 9.6005 72.1027L10.9244 70.7789C11.1626 70.5406 11.1626 70.1434 10.9244 69.8919C10.6993 69.6536 10.3021 69.6536 10.0506 69.8919C10.0638 69.8919 10.0506 69.8919 10.0506 69.8919Z" fill="#09727D"/>
<path d="M3.41914 76.5212L2.09529 77.8451C1.85699 78.0834 1.85699 78.4805 2.09529 78.7321C2.21443 78.8512 2.37329 78.9174 2.53216 78.9174C2.70426 78.9174 2.86312 78.8512 2.96903 78.7321L4.29288 77.4082C4.53118 77.1699 4.53118 76.7728 4.29288 76.5212C4.06783 76.2829 3.67067 76.2829 3.41914 76.5212Z" fill="#09727D"/>
<path d="M89.5494 6.11976L88.1462 5.35193C87.5107 5.02096 86.9812 4.49142 86.6502 3.85597L85.8824 2.45268C85.6838 2.1482 85.2866 2.06877 84.9821 2.25411C84.9027 2.30706 84.8365 2.37325 84.7836 2.45268L84.0157 3.85597C83.6715 4.49142 83.1552 5.00772 82.5198 5.35193L81.1165 6.11976C80.9179 6.22567 80.7855 6.43749 80.7855 6.66254C80.7855 6.8876 80.9047 7.09942 81.1165 7.20532L82.5198 7.97316C83.1552 8.31736 83.6715 8.83367 84.0157 9.46912L84.7836 10.8724C84.8895 11.071 85.1013 11.2034 85.3263 11.2034C85.5514 11.2034 85.7632 11.0842 85.8691 10.8856L86.637 9.48235C86.9812 8.8469 87.4975 8.3306 88.1329 7.9864L89.5362 7.21856C89.7348 7.11265 89.8539 6.90084 89.8539 6.67578C89.8804 6.43749 89.748 6.22567 89.5494 6.11976ZM87.5504 6.8876C86.7032 7.35095 86.0147 8.03935 85.5514 8.87338L85.3396 9.27054L85.1278 8.87338C84.6644 8.02611 83.976 7.33771 83.1287 6.8876L82.7316 6.67578L83.1287 6.46397C83.976 6.00062 84.6644 5.31221 85.1278 4.46494L85.3396 4.06779L85.5514 4.46494C86.0147 5.31221 86.7032 6.00062 87.5504 6.45073L87.9476 6.66254L87.5504 6.8876Z" fill="#09727D"/>
<path d="M94.2488 36.6444H93.0044C92.6602 36.6444 92.3822 36.9224 92.3822 37.2666C92.3822 37.6108 92.6602 37.8888 93.0044 37.8888H94.2488C94.593 37.8888 94.871 37.6108 94.871 37.2666C94.871 36.9224 94.593 36.6444 94.2488 36.6444Z" fill="#09727D"/>
<path d="M100.497 36.6444H99.2528C98.9086 36.6444 98.6306 36.9224 98.6306 37.2666C98.6306 37.6108 98.9086 37.8888 99.2528 37.8888H100.497C100.841 37.8888 101.119 37.6108 101.119 37.2666C101.119 36.9224 100.841 36.6444 100.497 36.6444Z" fill="#09727D"/>
<path d="M96.7494 32.8595C96.4052 32.8595 96.1272 33.1375 96.1272 33.4817V34.7261C96.1272 35.0703 96.4052 35.3483 96.7494 35.3483C97.0936 35.3483 97.3716 35.0703 97.3716 34.7261V33.4817C97.3849 33.1375 97.1069 32.8595 96.7494 32.8595Z" fill="#09727D"/>
<path d="M96.7494 39.1085C96.4052 39.1085 96.1272 39.3865 96.1272 39.7307V40.9751C96.1272 41.3193 96.4052 41.5973 96.7494 41.5973C97.0936 41.5973 97.3716 41.3193 97.3716 40.9751V39.7307C97.3849 39.3865 97.0936 39.1085 96.7494 39.1085Z" fill="#09727D"/>
<path d="M12.4271 18.2237H11.1827C10.8385 18.2237 10.5605 18.5017 10.5605 18.8459C10.5605 19.1901 10.8385 19.4681 11.1827 19.4681H12.4271C12.7713 19.4681 13.0493 19.1901 13.0493 18.8459C13.0493 18.5017 12.7713 18.2237 12.4271 18.2237Z" fill="#09727D"/>
<path d="M18.6756 18.2237H17.4312C17.087 18.2237 16.809 18.5017 16.809 18.8459C16.809 19.1901 17.087 19.4681 17.4312 19.4681H18.6756C19.0198 19.4681 19.2978 19.1901 19.2978 18.8459C19.2978 18.5017 19.033 18.2237 18.6756 18.2237Z" fill="#09727D"/>
<path d="M14.9412 14.4258C14.597 14.4258 14.319 14.7038 14.319 15.048V16.2924C14.319 16.6366 14.597 16.9146 14.9412 16.9146C15.2854 16.9146 15.5634 16.6366 15.5634 16.2924V15.048C15.5634 14.7038 15.2854 14.4258 14.9412 14.4258Z" fill="#09727D"/>
<path d="M14.9412 20.6742C14.597 20.6742 14.319 20.9522 14.319 21.2964V22.5409C14.319 22.8851 14.597 23.1631 14.9412 23.1631C15.2854 23.1631 15.5634 22.8851 15.5634 22.5409V21.2964C15.5634 20.9655 15.2854 20.6742 14.9412 20.6742Z" fill="#09727D"/>
<path d="M68.1534 5.01456H40.6437C40.2995 5.01456 40.0215 5.29257 40.0215 5.63677C40.0215 5.98097 40.2995 6.25898 40.6437 6.25898H68.1534C68.4976 6.25898 68.7756 5.98097 68.7756 5.63677C68.7756 5.29257 68.4976 5.01456 68.1534 5.01456Z" fill="#09727D"/>
<path d="M72.2264 92.4016H37.2104C36.8662 92.4016 36.5882 92.6796 36.5882 93.0238C36.5882 93.368 36.8662 93.646 37.2104 93.646H72.2264C72.5706 93.646 72.8486 93.368 72.8486 93.0238C72.8486 92.6929 72.5706 92.4016 72.2264 92.4016Z" fill="#09727D"/>
<path d="M66.5989 96.7797H49.7197C49.3755 96.7797 49.0975 97.0577 49.0975 97.4019C49.0975 97.7461 49.3755 98.0241 49.7197 98.0241H66.5989C66.9431 98.0241 67.2211 97.7461 67.2211 97.4019C67.2211 97.0577 66.9431 96.7797 66.5989 96.7797Z" fill="#09727D"/>
<path d="M44.7085 96.7797H33.4557C33.1115 96.7797 32.8335 97.0577 32.8335 97.4019C32.8335 97.7461 33.1115 98.0241 33.4557 98.0241H44.7085C45.0527 98.0241 45.3307 97.7461 45.3307 97.4019C45.3307 97.0577 45.0527 96.7797 44.7085 96.7797Z" fill="#09727D"/>
<path d="M55.6434 0.636414H46.8927C46.5485 0.636414 46.2705 0.914422 46.2705 1.25862C46.2705 1.60283 46.5485 1.88084 46.8927 1.88084H55.6434C55.9876 1.88084 56.2656 1.60283 56.2656 1.25862C56.2656 0.914422 55.9876 0.636414 55.6434 0.636414Z" fill="#09727D"/>
<path d="M63.148 0.636414H59.4015C59.0573 0.636414 58.7793 0.914422 58.7793 1.25862C58.7793 1.60283 59.0573 1.88084 59.4015 1.88084H63.148C63.4922 1.88084 63.7702 1.60283 63.7702 1.25862C63.7702 0.914422 63.4922 0.636414 63.148 0.636414Z" fill="#09727D"/>
<path d="M83.2443 57.5481C87.7893 39.4839 76.8297 21.1556 58.7655 16.6107C40.7013 12.0657 22.3729 23.0253 17.828 41.0895C13.2831 59.1537 24.2426 77.4821 42.3069 82.027C60.3711 86.5719 78.6994 75.6124 83.2443 57.5481Z" stroke="#09727D" stroke-width="3.5" stroke-miterlimit="10" stroke-linecap="round" stroke-linejoin="round"/>
</svg>
