<svg width="212" height="201" viewBox="0 0 212 201" fill="none" xmlns="http://www.w3.org/2000/svg">
<rect x="29.875" y="61.64" width="58.6702" height="58.6702" rx="15.3882" transform="rotate(-20.959 29.875 61.64)" fill="#FFC467"/>
<circle cx="91.4" cy="145.458" r="6.37169" transform="rotate(-13.2939 91.4 145.458)" fill="#458285"/>
<path opacity="0.1" fill-rule="evenodd" clip-rule="evenodd" d="M92.9649 66.0369C92.9414 65.6923 92.8894 65.3451 92.8074 64.9979C91.9982 61.5732 88.566 59.4529 85.1413 60.2621C81.7166 61.0713 79.5963 64.5035 80.4055 67.9282C80.4398 68.0734 80.4788 68.2163 80.5224 68.3566C71.5388 72.9264 66.4419 83.1866 68.8581 93.4129L71.536 104.746C71.7184 105.987 71.8478 107.187 71.9273 108.355L105.373 95.9717C110.598 94.0371 113.574 88.5237 112.324 83.0941C110.143 73.6184 102.137 66.9914 92.9649 66.0369Z" fill="#151A53"/>
<circle cx="88.5304" cy="65.5014" r="6.37169" transform="rotate(-13.2939 88.5304 65.5014)" fill="#69E5BF"/>
<path d="M99.2151 99.3121C96.1152 87.335 103.312 75.1126 115.289 72.0127C127.266 68.9128 139.488 76.1092 142.588 88.0863L145.49 99.2981C148.095 106.138 151.428 110.975 155.915 115.609C161.378 121.25 159.426 130.793 151.824 132.761L112.697 142.888C105.117 144.85 98.8155 137.513 100.933 129.976C102.713 123.639 103.338 117.759 102.117 110.524L99.2151 99.3121Z" fill="#FFECE6"/>
<path d="M72.7203 94.4375C69.8754 82.3972 77.3298 70.3304 89.3701 67.4856C101.41 64.6408 113.477 72.0952 116.322 84.1354L118.985 95.4063C121.444 102.3 124.673 107.207 129.061 111.935C134.403 117.69 132.248 127.191 124.607 128.996L85.2731 138.29C77.6536 140.09 71.5093 132.622 73.7864 125.131C75.7007 118.833 76.4509 112.968 75.3833 105.708L72.7203 94.4375Z" fill="#E1FAF2"/>
<circle opacity="0.1" r="4.80883" transform="matrix(1 0 0 -1 158.752 84.8948)" fill="#397A7D"/>
<circle opacity="0.2" r="2.88529" transform="matrix(1 0 0 -1 76.0401 193.574)" fill="#397A7D"/>
<path d="M30.4394 32.6094C29.3359 29.8612 31.6213 26.949 34.5531 27.3675L42.7986 28.5445C45.7304 28.963 47.1097 32.3982 45.2814 34.7279L40.1393 41.2803C38.311 43.61 34.6463 43.0869 33.5429 40.3387L30.4394 32.6094Z" fill="#69E5BF"/>
<path d="M7.66136 143.918C6.50176 141.03 8.9034 137.97 11.9843 138.409C15.0652 138.849 16.5147 142.459 14.5934 144.908C12.6721 147.356 8.82096 146.806 7.66136 143.918Z" fill="#69E5BF"/>
<path d="M182.188 121.441C179.933 115.825 184.603 109.874 190.594 110.729C196.585 111.584 199.404 118.604 195.668 123.365C191.931 128.126 184.443 127.057 182.188 121.441Z" fill="#69E5BF"/>
<path opacity="0.2" d="M135.982 186.33C133.904 184.219 134.891 180.651 137.758 179.907L145.82 177.816C148.687 177.073 151.283 179.711 150.494 182.566L148.274 190.593C147.484 193.448 143.901 194.377 141.824 192.266L135.982 186.33Z" fill="#69E5BF"/>
<path opacity="0.3" d="M170.062 37.3686C167.33 44.2849 162.986 25.7838 156.07 23.0517C149.153 20.3197 131.869 21.4878 134.601 14.5715C137.333 7.65518 157.49 7.06763 164.407 9.79967C171.323 12.5317 172.794 30.4523 170.062 37.3686Z" fill="#03A9F4"/>
</svg>
